<svg preserveAspectRatio="none" width="100%" height="100%" overflow="visible" style="display: block;" viewBox="0 0 15 32" fill="none" xmlns="http://www.w3.org/2000/svg">
<path id="Vector" d="M10.2904 3.56662C8.94208 1.97315 7.78105 0.354795 7.54387 0.0186734C7.51889 -0.00622448 7.48143 -0.00622448 7.45647 0.0186734C7.21927 0.354795 6.05826 1.97315 4.70997 3.56662C-6.86273 18.2688 6.53266 28.1906 6.53266 28.1906L6.64501 28.2653C6.74487 29.7965 6.99455 32 6.99455 32H7.49392H7.99328C7.99328 32 8.24297 29.8089 8.34284 28.2653L8.45519 28.1782C8.46767 28.1906 21.8631 18.2688 10.2904 3.56662ZM7.49392 27.979C7.49392 27.979 6.89469 27.4686 6.73239 27.2071V27.1823L7.45647 11.1729C7.45647 11.1231 7.53138 11.1231 7.53138 11.1729L8.25544 27.1823V27.2071C8.09315 27.4686 7.49392 27.979 7.49392 27.979Z" fill="var(--fill-0, #00684A)"/>
</svg>
