<svg preserveAspectRatio="none" width="100%" height="100%" overflow="visible" style="display: block;" viewBox="0 0 1.57431 1.88122" fill="none" xmlns="http://www.w3.org/2000/svg">
<g id="Group">
<path id="Vector" fill-rule="evenodd" clip-rule="evenodd" d="M0.809794 0.000581031C0.479946 -0.00546328 0.246688 0.036428 3.8147e-06 0.0900089C3.8147e-06 0.10499 3.8147e-06 0.119991 3.8147e-06 0.134813C0.0150333 0.134813 0.0300628 0.134813 0.0450923 0.134813C0.202401 0.456617 0.480147 0.6637 0.674729 0.94092C0.824623 1.25437 0.974517 1.56781 1.12461 1.88106C1.13944 1.86624 1.15467 1.85126 1.1695 1.83644C1.44805 1.64104 1.5757 1.32839 1.57429 0.851313C1.46268 0.734416 1.44624 0.587737 1.34945 0.448239C1.2208 0.262401 0.971912 0.156816 0.809794 0.000581031Z" fill="var(--fill-0, black)"/>
</g>
</svg>
