<svg preserveAspectRatio="none" width="100%" height="100%" overflow="visible" style="display: block;" viewBox="0 0 29 28.3223" fill="none" xmlns="http://www.w3.org/2000/svg">
<g id="Group">
<path id="Vector" d="M26.7061 21.9192C25.1242 21.8765 23.9158 22.0229 22.8828 22.4566C22.5892 22.5799 22.1211 22.583 22.0732 22.9493C22.2345 23.1177 22.2596 23.369 22.3878 23.5761C22.6345 23.9734 23.0509 24.5059 23.4224 24.7851C23.8284 25.0901 24.2469 25.4165 24.6821 25.6806C25.4562 26.1506 26.3205 26.4189 27.066 26.8897C27.5053 27.1671 27.9417 27.5166 28.3704 27.8298C28.5822 27.9846 28.7247 28.2254 29 28.3223C29 28.3076 29 28.2926 29 28.2777C28.8553 28.0943 28.818 27.8422 28.6852 27.6507C28.4904 27.4568 28.2954 27.2627 28.1004 27.0686C27.5287 26.3132 26.8029 25.6497 26.0314 25.0985C25.4162 24.6589 24.0391 24.065 23.7824 23.3522C23.7673 23.3373 23.7525 23.3223 23.7373 23.3074C24.1735 23.2585 24.6843 23.1013 25.0869 22.994C25.7632 22.8134 26.3676 22.8601 27.066 22.6806C27.3808 22.591 27.6956 22.5013 28.0107 22.4119C28.0107 22.352 28.0107 22.2926 28.0107 22.2328C27.6576 21.8721 27.4059 21.3949 27.0209 21.0686C26.0137 20.2148 24.9144 19.3618 23.7824 18.6505C23.1545 18.256 22.3786 17.9997 21.7133 17.6654C21.4895 17.553 21.0963 17.4945 20.9484 17.3071C20.5989 16.8636 20.4085 16.3014 20.139 15.7847C19.5743 14.7024 19.0198 13.5203 18.5196 12.3816C18.1783 11.6051 17.9555 10.8393 17.5301 10.1427C15.4877 6.80003 13.2892 4.78241 9.88346 2.79928C9.15884 2.37753 8.28633 2.21096 7.36432 1.99337C6.86975 1.96357 6.37477 1.93356 5.88 1.90376C5.57801 1.77811 5.26379 1.4103 4.98044 1.23206C3.85222 0.522573 0.958338 -1.02069 0.122697 1.00823C-0.404939 2.28888 0.911246 3.53858 1.38197 4.18747C1.71242 4.64273 2.13545 5.15313 2.37151 5.66508C2.52682 6.00152 2.55367 6.33893 2.68653 6.69502C3.01357 7.57205 3.29793 8.52621 3.72096 9.33681C3.93478 9.74688 4.17045 10.179 4.44078 10.5458C4.6065 10.7708 4.89046 10.8699 4.93535 11.2175C4.6576 11.6044 4.64177 12.2049 4.48566 12.6951C3.78268 14.9017 4.0478 17.6443 5.07041 19.2774C5.38423 19.7787 6.12328 20.8539 7.13947 20.4416C8.02842 20.0811 7.82983 18.9642 8.08413 17.9788C8.14164 17.7554 8.10637 17.5912 8.21899 17.4415C8.21899 17.4564 8.21899 17.4714 8.21899 17.4864C8.48892 18.0236 8.75885 18.5609 9.02879 19.0981C9.62796 20.0588 10.6914 21.0628 11.5926 21.7402C12.0599 22.0915 12.4279 22.6989 13.032 22.9044C13.032 22.8894 13.032 22.8747 13.032 22.8595C13.0168 22.8595 13.002 22.8595 12.987 22.8595C12.8699 22.6778 12.6868 22.6026 12.5373 22.4566C12.1852 22.1131 11.7938 21.686 11.5026 21.2924C10.683 20.1847 9.95861 18.9722 9.29872 17.7102C8.9835 17.1077 8.70956 16.4428 8.44384 15.8295C8.34144 15.593 8.34264 15.2356 8.12922 15.113C7.83825 15.5624 7.40961 15.9258 7.18456 16.4564C6.82466 17.3046 6.77817 18.339 6.6449 19.4117C6.56595 19.4398 6.60102 19.4205 6.55473 19.4564C5.9283 19.306 5.70806 18.664 5.47541 18.1132C4.88645 16.7204 4.77704 14.4776 5.29525 12.8743C5.42932 12.4596 6.03531 11.153 5.79003 10.7698C5.673 10.3874 5.28664 10.1663 5.07041 9.87409C4.80289 9.51291 4.53576 9.03739 4.3506 8.62031C3.86865 7.53427 3.64361 6.31515 3.13621 5.21742C2.89374 4.6926 2.48353 4.16156 2.14667 3.69501C1.77374 3.17819 1.35612 2.79752 1.06715 2.1724C0.96435 1.95032 0.824676 1.59478 0.977175 1.36648C1.02567 1.21238 1.094 1.1481 1.24711 1.09783C1.50802 0.897575 2.23464 1.16446 2.50638 1.27687C3.22779 1.57511 3.82978 1.85914 4.44078 2.26201C4.73415 2.45565 5.03073 2.83006 5.38523 2.93371C5.5201 2.93371 5.65516 2.93371 5.79003 2.93371C6.42327 3.07863 7.13266 2.97871 7.72422 3.15753C8.76988 3.47391 9.70692 3.96599 10.558 4.50092C13.1507 6.13049 15.2704 8.45025 16.7205 11.2175C16.9537 11.663 17.0547 12.0883 17.2601 12.5609C17.6748 13.5139 18.197 14.4945 18.6094 15.4265C19.021 16.3563 19.4222 17.2947 20.0039 18.0684C20.3099 18.4752 21.4913 18.6934 22.0281 18.9192C22.4044 19.0775 23.0211 19.2425 23.3776 19.4564C24.0585 19.8653 24.7182 20.352 25.3568 20.7999C25.6761 21.0237 26.6572 21.5146 26.7061 21.9192Z" fill="var(--fill-0, black)"/>
</g>
</svg>
