<svg preserveAspectRatio="none" width="100%" height="100%" overflow="visible" style="display: block;" viewBox="0 0 24.2864 29" fill="none" xmlns="http://www.w3.org/2000/svg">
<g id="S3">
<path id="path13" d="M7.68688 2.19281C9.17081 1.46102 10.6495 0.720258 12.1387 0C12.1516 2.43504 12.1387 4.88033 12.1387 7.32049C10.6885 7.63832 9.25642 8.03818 7.80622 8.35474L8.00598 8.4829L7.70244 8.44829C7.66872 7.76777 7.70244 7.08596 7.68428 6.40543C7.68428 4.99823 7.68688 3.59488 7.68688 2.19281V2.19281Z" fill="var(--fill-0, #8C3223)"/>
<path id="path15" d="M12.1386 0C13.6234 0.734783 15.1091 1.46828 16.5956 2.2005V6.4003C16.5878 7.05135 16.5956 7.70369 16.5956 8.35474L16.4996 8.38037C15.0507 8.02024 13.6031 7.64986 12.1464 7.32049C12.1373 4.88033 12.1516 2.43504 12.1386 0V0Z" fill="var(--fill-0, #E15343)"/>
<path id="path17" d="M0 5.98634C0.658947 5.6685 1.30881 5.33016 1.97295 5.02002C1.96776 11.3229 1.96776 17.6258 1.97295 23.9287C1.30881 23.6275 0.664136 23.2879 0.00518856 22.9701C0.00172952 17.3114 0 11.6501 0 5.98634Z" fill="var(--fill-0, #8C3223)"/>
<path id="path19" d="M1.97293 5.02002C3.87324 5.50061 5.78653 5.92739 7.68813 6.40799C7.7011 7.08851 7.67257 7.77033 7.70629 8.45085L8.00982 8.48546C9.38739 8.70589 10.7507 8.9981 12.1295 9.20443C12.1451 9.75424 12.1425 10.3028 12.1295 10.8526C10.6534 11.0217 9.17076 11.1999 7.69073 11.4062C7.69073 13.4683 7.69851 15.5317 7.69073 17.5938C9.16687 17.8206 10.6534 17.9783 12.1347 18.1628C12.1646 18.7049 12.1451 19.2483 12.1438 19.7917C10.6573 20.0391 9.17595 20.3146 7.69592 20.594V22.5536C5.78393 23.0239 3.87324 23.4532 1.96904 23.9274C1.97596 17.6254 1.97726 11.3229 1.97293 5.02002V5.02002Z" fill="var(--fill-0, #E15343)"/>
<path id="path21" d="M16.593 6.40025C18.4998 5.93246 20.4105 5.48134 22.3199 5.02638C22.313 11.1481 22.313 17.2699 22.3199 23.3917C22.3199 23.566 22.3018 23.7403 22.2862 23.9146C20.3872 23.4699 18.4921 23.0174 16.5943 22.5574C16.5866 21.9037 16.5943 21.2488 16.5943 20.5939C15.1117 20.3146 13.6265 20.039 12.1374 19.7891C12.1374 19.2457 12.1581 18.7023 12.1283 18.1602C10.647 17.9795 9.16043 17.818 7.68428 17.5912C7.69855 15.5291 7.68428 13.4657 7.68428 11.4036C9.17081 11.1998 10.6534 11.0217 12.1361 10.8461C12.1426 10.2963 12.1451 9.74778 12.1361 9.19798C13.3826 9.0224 14.6149 8.74685 15.8615 8.55718C16.0807 8.52184 16.2956 8.4634 16.5022 8.38288L16.5982 8.35725C16.5892 7.70235 16.5853 7.04874 16.593 6.40025V6.40025Z" fill="var(--fill-0, #8C3223)"/>
<path id="path23" d="M22.3212 5.02638C22.9698 5.35575 23.6339 5.66717 24.2864 6.00167C24.2803 11.6569 24.2803 17.3122 24.2864 22.9675C23.6196 23.2994 22.9451 23.6185 22.2836 23.9633V23.9158C22.2992 23.7416 22.3121 23.5673 22.3173 23.393C22.3182 17.2703 22.3195 11.1481 22.3212 5.02638V5.02638Z" fill="var(--fill-0, #E15343)"/>
<path id="path25" d="M7.81011 8.35469C9.26161 8.03814 10.6924 7.63828 12.1426 7.32044C13.5992 7.64981 15.0469 8.02019 16.4958 8.38032C16.2891 8.46085 16.0742 8.51928 15.855 8.55462C14.6097 8.74686 13.3774 9.0224 12.1296 9.19542C10.7494 8.99036 9.38613 8.69688 8.00987 8.47644C7.94371 8.43928 7.87626 8.39827 7.81011 8.35469Z" fill="var(--fill-0, #5E1F19)"/>
<path id="path27" d="M12.1529 10.8487C13.6316 11.0307 15.113 11.205 16.5904 11.4062V17.5925C15.1091 17.8052 13.6226 17.9898 12.136 18.1538C12.1568 15.7175 12.1244 13.2825 12.1529 10.8487Z" fill="var(--fill-0, #E15343)"/>
<path id="path29" d="M7.69076 20.5915C9.1695 20.3121 10.6521 20.0365 12.1387 19.7892C13.6265 20.0391 15.1117 20.3146 16.5956 20.594C15.1104 20.9554 13.6291 21.3412 12.1374 21.6795C10.6508 21.3297 9.1708 20.9606 7.69076 20.5915V20.5915Z" fill="var(--fill-0, #F2B0A9)"/>
<path id="path31" d="M7.68682 22.5561C7.69331 21.9025 7.68682 21.2502 7.68682 20.5965C9.16686 20.9644 10.6482 21.3347 12.1321 21.6846C12.1477 24.1197 12.1386 26.5624 12.1321 29C10.6417 28.281 9.16297 27.539 7.67774 26.8072C7.6838 25.388 7.68682 23.971 7.68682 22.5561Z" fill="var(--fill-0, #8C3223)"/>
<path id="path33" d="M12.136 21.6807C13.6277 21.3424 15.1091 20.9566 16.5943 20.5952C16.5878 21.2488 16.5852 21.9037 16.5943 22.5586C16.6008 23.9684 16.5943 25.3782 16.5943 26.7969C15.1086 27.5291 13.6239 28.2626 12.1399 28.9974C12.1425 26.5572 12.1516 24.1183 12.136 21.6807Z" fill="var(--fill-0, #E15343)"/>
</g>
</svg>
